<?xml version="1.0" standalone="no"?>
<!DOCTYPE svg PUBLIC "-//W3C//DTD SVG 20010904//EN"
 "http://www.w3.org/TR/2001/REC-SVG-20010904/DTD/svg10.dtd">
<svg version="1.0" xmlns="http://www.w3.org/2000/svg"
 width="4134.000000pt" height="4134.000000pt" viewBox="0 0 4134.000000 4134.000000"
 preserveAspectRatio="xMidYMid meet">

<g transform="translate(0.000000,4134.000000) scale(0.100000,-0.100000)"
fill="#000000" stroke="none">
<path d="M21840 34080 c-269 -42 -328 -63 -389 -137 -132 -160 -34 -405 174
-438 23 -4 79 0 130 10 140 25 285 44 343 45 48 0 53 -2 64 -27 18 -43 77
-112 117 -138 55 -36 121 -53 292 -75 85 -11 189 -28 230 -39 78 -20 239 -87
429 -179 135 -65 187 -74 247 -44 56 29 89 72 104 136 36 161 -115 372 -361
508 -126 69 -353 133 -543 153 -66 7 -69 9 -97 50 -55 80 -157 143 -284 176
-92 24 -297 24 -456 -1z"/>
<path d="M20285 34019 c-188 -18 -349 -78 -447 -168 -48 -44 -60 -50 -124 -60
-346 -53 -633 -218 -805 -461 -165 -233 -183 -437 -45 -521 39 -24 125 -25
169 -2 17 9 114 79 215 157 240 184 239 183 294 212 87 44 203 75 340 89 144
14 231 57 291 141 42 61 73 69 247 69 111 0 151 -4 171 -15 113 -64 112 -64
194 -64 94 0 140 19 197 82 47 52 56 70 68 134 28 145 -68 284 -239 349 -138
52 -350 75 -526 58z"/>
<path d="M23895 33156 c-90 -29 -136 -67 -176 -146 -33 -64 -33 -166 1 -234
33 -66 95 -118 166 -140 142 -44 203 -98 269 -234 46 -92 54 -102 217 -261
245 -238 325 -341 428 -550 32 -64 74 -161 94 -216 20 -55 45 -119 56 -142 58
-126 195 -197 316 -163 60 17 135 86 162 147 48 114 35 212 -59 436 -150 357
-311 588 -602 862 -107 101 -121 118 -162 201 -33 69 -63 112 -120 173 -175
185 -454 312 -590 267z"/>
<path d="M18450 32876 c-147 -44 -265 -113 -361 -213 -108 -112 -181 -236
-220 -371 -15 -53 -29 -75 -90 -140 -138 -147 -213 -264 -289 -447 -23 -55
-62 -143 -87 -195 -116 -246 -166 -414 -197 -671 -36 -295 -33 -419 29 -989 9
-80 23 -212 31 -295 30 -299 44 -433 59 -565 41 -372 46 -401 81 -475 13 -27
22 -51 20 -52 -2 -2 -29 -10 -61 -18 -86 -23 -205 -77 -284 -129 -73 -49 -187
-162 -240 -239 -51 -75 -108 -204 -138 -312 -26 -95 -28 -111 -28 -315 0 -219
7 -279 52 -440 94 -340 275 -651 519 -894 153 -151 370 -297 531 -356 77 -28
98 -31 168 -28 l79 3 31 -130 c115 -473 323 -1057 502 -1410 43 -84 47 -97 54
-195 4 -58 12 -157 18 -220 6 -63 11 -150 11 -192 l0 -78 -59 0 c-122 0 -300
-59 -418 -137 -162 -109 -273 -220 -449 -452 -43 -58 -134 -163 -202 -234
-185 -194 -192 -214 -192 -552 l0 -230 -68 -32 c-141 -67 -523 -285 -712 -406
-108 -70 -272 -185 -685 -482 -918 -660 -1240 -885 -1832 -1282 -790 -528
-898 -609 -1177 -882 -496 -487 -718 -871 -958 -1656 -102 -336 -246 -871
-304 -1130 -9 -38 -22 -95 -29 -125 -24 -102 -103 -474 -133 -625 -32 -157
-49 -247 -77 -405 -9 -52 -23 -129 -30 -170 -105 -584 -189 -1274 -244 -2015
-58 -764 -77 -1305 -86 -2360 -2 -324 -7 -639 -11 -698 -5 -87 -3 -120 11
-170 33 -118 111 -194 221 -217 87 -18 191 21 257 95 43 48 57 102 56 214 -1
58 6 189 15 291 21 243 26 557 8 587 -30 54 1 1220 53 1993 18 252 41 547 55
675 5 50 12 119 15 155 3 36 10 101 15 145 5 44 16 141 25 215 75 650 221
1485 380 2170 7 30 20 87 28 125 16 69 103 412 151 590 65 246 164 571 226
750 17 50 38 110 47 135 57 164 216 485 271 548 l27 31 110 -45 c357 -144 694
-356 925 -584 184 -181 322 -383 495 -725 168 -333 262 -563 396 -968 117
-357 147 -402 255 -401 58 1 105 31 132 84 23 43 23 51 18 205 -17 506 -229
1162 -539 1668 -195 319 -483 620 -792 827 -189 126 -505 297 -637 343 -10 4
-18 10 -18 15 0 5 42 48 93 94 236 216 342 293 1016 746 589 395 945 643 1731
1207 129 92 257 184 284 203 27 19 113 81 190 137 78 56 188 133 246 172 227
151 619 379 630 366 3 -4 12 -37 19 -73 26 -140 122 -484 167 -600 7 -19 42
-116 78 -215 217 -607 411 -990 662 -1305 90 -113 308 -330 364 -363 61 -35
181 -69 260 -74 81 -5 138 17 197 77 70 71 83 127 83 354 0 327 36 472 145
580 37 37 103 76 129 76 8 0 33 -35 57 -77 23 -43 72 -125 109 -183 168 -266
376 -681 505 -1010 20 -52 49 -126 65 -165 15 -38 35 -90 44 -115 8 -25 29
-83 47 -130 78 -212 227 -645 398 -1160 49 -146 97 -285 108 -310 12 -25 35
-79 53 -120 102 -235 190 -383 254 -424 78 -51 192 -21 232 61 36 76 29 272
-17 527 -42 225 -95 395 -393 1261 -94 275 -262 723 -330 884 -20 47 -34 86
-32 89 2 2 14 -2 26 -8 35 -19 252 -89 326 -105 251 -56 433 -75 709 -75 521
0 1023 90 1447 259 87 34 261 120 319 157 21 13 40 24 42 24 3 0 7 -66 11
-147 4 -82 11 -215 17 -298 15 -231 13 -446 -5 -555 -9 -52 -41 -219 -71 -370
-64 -320 -67 -336 -96 -495 -34 -191 -117 -608 -139 -703 -64 -275 -87 -348
-124 -397 -60 -78 -61 -86 -60 -460 0 -187 6 -506 12 -710 7 -203 17 -505 22
-670 11 -334 24 -640 40 -910 5 -99 17 -304 25 -455 18 -329 41 -702 55 -895
6 -77 15 -212 20 -300 5 -88 17 -257 25 -375 8 -118 19 -285 25 -370 5 -85 12
-180 15 -210 3 -30 10 -122 15 -205 5 -82 17 -248 25 -367 8 -120 22 -314 30
-430 29 -415 30 -430 60 -491 45 -97 134 -153 240 -151 115 2 201 67 246 185
20 56 22 70 15 207 -3 81 -11 197 -16 257 -5 61 -14 182 -20 270 -18 259 -29
417 -45 645 -29 409 -72 1050 -85 1250 -5 85 -14 220 -20 300 -5 80 -17 264
-25 410 -8 146 -19 335 -25 420 -5 85 -12 211 -15 280 -3 69 -10 204 -15 300
-15 263 -29 643 -40 1050 -5 201 -15 527 -21 725 l-12 360 36 90 c38 97 89
279 146 525 18 76 114 557 140 700 34 191 57 310 97 505 102 501 111 597 91
985 -8 151 -12 278 -10 283 13 24 141 -95 211 -196 54 -78 112 -189 161 -307
65 -157 156 -233 279 -233 52 0 78 6 117 26 94 47 132 113 145 250 5 51 14
124 21 162 14 86 7 274 -21 540 -46 441 -93 706 -165 933 -15 46 -24 86 -22
89 3 2 83 -34 179 -81 169 -84 244 -123 478 -251 275 -150 792 -428 965 -520
758 -400 1091 -612 1446 -917 62 -53 67 -60 73 -110 4 -29 16 -80 27 -113 81
-248 136 -648 199 -1475 5 -69 12 -143 15 -165 3 -22 9 -92 15 -155 31 -355
110 -1001 156 -1268 57 -335 100 -417 221 -417 97 0 147 61 159 193 18 213
-25 1669 -52 1765 -3 9 -1 17 4 17 19 0 180 -579 252 -910 77 -350 148 -729
185 -985 8 -55 19 -129 24 -165 50 -332 125 -974 155 -1320 36 -409 46 -543
66 -900 5 -96 14 -256 20 -355 24 -420 45 -1174 55 -1945 6 -504 9 -549 35
-600 51 -101 113 -140 220 -140 152 0 241 95 276 295 22 128 18 591 -16 1720
-28 926 -89 1821 -175 2560 -40 345 -72 587 -130 980 -31 208 -124 716 -154
840 -6 22 -20 83 -31 135 -121 543 -269 1034 -483 1605 -122 327 -333 812
-408 940 -78 134 -198 258 -448 463 -377 310 -690 504 -1506 937 -156 82 -258
137 -310 165 -27 15 -106 58 -175 95 -190 103 -291 158 -580 315 -143 78 -598
301 -745 365 -71 32 -178 73 -237 93 l-108 35 -29 76 c-16 42 -53 132 -81 200
-28 68 -71 190 -96 270 -89 288 -126 363 -234 472 -109 110 -246 175 -429 205
-46 7 -86 16 -89 19 -8 7 16 254 33 355 24 135 64 280 94 346 23 49 58 91 188
220 197 196 302 327 431 539 63 102 180 335 207 410 10 28 22 55 25 60 36 52
186 546 259 850 17 72 37 155 45 185 7 30 28 124 47 208 l33 153 97 51 c309
161 580 468 794 897 96 194 156 364 201 571 14 65 19 128 19 265 0 158 -3 190
-23 259 -60 207 -171 356 -329 439 -80 42 -196 76 -270 79 l-53 2 0 146 c0 87
6 169 14 205 8 33 17 92 21 130 12 128 36 307 76 565 21 140 43 287 49 325 20
132 39 330 55 570 8 132 20 301 26 375 23 296 23 313 2 361 -47 107 -133 163
-248 163 -54 0 -81 -5 -115 -23 -138 -71 -167 -157 -191 -576 -24 -425 -24
-425 -33 -374 -4 26 -5 73 -1 105 18 157 4 221 -62 295 -46 51 -49 52 -273
137 -192 72 -227 87 -420 179 -211 100 -225 103 -497 106 l-238 2 -95 37
c-226 87 -311 102 -575 101 -147 0 -221 -4 -280 -16 -294 -62 -405 -133 -405
-260 0 -176 181 -248 662 -266 227 -8 248 -10 318 -36 266 -96 328 -108 568
-106 l193 1 87 -41 c151 -72 296 -136 322 -144 14 -4 30 -11 35 -15 6 -4 34
-15 63 -25 l52 -19 0 -60 c0 -78 25 -250 46 -324 20 -69 54 -138 104 -212 63
-93 83 -146 110 -290 5 -30 17 -86 25 -125 25 -113 64 -401 65 -484 0 -21 -2
-22 -19 -10 -11 8 -50 36 -88 63 -127 92 -204 111 -335 82 -35 -7 -94 -18
-133 -25 -259 -40 -336 -56 -575 -116 -368 -92 -535 -170 -572 -265 -13 -35 0
-145 20 -170 17 -19 17 -19 87 0 39 11 117 29 175 40 94 17 166 27 420 60 407
52 629 34 914 -74 39 -15 75 -25 81 -22 16 6 10 -152 -16 -429 -12 -121 -19
-249 -17 -285 15 -206 185 -325 353 -246 110 51 174 171 193 362 l7 68 39 8
c54 11 86 -7 115 -66 80 -161 -4 -523 -200 -867 -38 -66 -88 -146 -112 -177
l-42 -57 -5 55 c-8 93 -63 166 -160 216 -43 22 -151 25 -200 5 -80 -33 -144
-106 -172 -196 -17 -55 -45 -169 -62 -250 -10 -44 -24 -107 -31 -140 -26 -116
-45 -202 -90 -410 -82 -379 -154 -676 -209 -866 -98 -335 -147 -466 -258 -686
-121 -241 -256 -422 -455 -613 -158 -152 -329 -274 -663 -474 -416 -249 -657
-405 -712 -461 -126 -127 -70 -288 104 -302 120 -10 448 93 751 234 42 20 80
34 83 30 3 -3 0 -41 -7 -84 -19 -110 -19 -754 -1 -883 50 -354 137 -612 255
-753 36 -44 46 -69 113 -305 41 -141 83 -300 94 -352 18 -89 40 -247 40 -297
0 -16 -32 -43 -142 -116 -166 -110 -255 -158 -393 -214 -372 -152 -880 -235
-1335 -220 -263 9 -427 37 -645 109 -145 48 -254 103 -445 229 -177 117 -296
191 -332 206 -30 13 -92 112 -163 260 -52 108 -90 154 -151 183 -40 20 -50 32
-94 119 -47 90 -81 154 -185 346 -172 318 -294 590 -523 1165 -50 124 -105
259 -122 301 l-33 77 37 61 c52 86 108 202 139 291 65 186 147 569 147 690 0
81 9 81 111 -10 304 -269 673 -503 1054 -669 28 -12 59 -26 70 -31 133 -61
369 -135 509 -160 167 -29 257 9 287 121 11 40 10 53 -5 93 -21 54 -58 85
-181 151 -332 177 -715 414 -1065 658 -393 274 -745 661 -909 997 -223 459
-453 1162 -515 1578 -18 117 -47 175 -111 224 -88 67 -199 74 -297 21 -49 -27
-117 -102 -118 -130 0 -32 -36 -1 -182 155 -222 239 -302 333 -375 444 -217
329 -292 728 -184 981 30 70 110 149 184 182 65 30 190 46 219 29 20 -12 126
-137 165 -194 67 -99 125 -253 138 -370 28 -238 100 -457 177 -537 42 -43 87
-63 143 -63 96 0 158 63 204 209 65 207 68 231 76 761 3 230 9 343 19 385 12
51 56 184 206 615 51 147 85 197 219 330 76 75 142 151 165 189 42 69 92 189
120 291 51 185 78 255 111 296 67 82 171 144 355 213 154 58 218 85 327 136
194 92 317 119 595 135 122 7 220 21 416 59 283 54 460 81 543 81 141 1 252
115 253 260 2 125 -64 220 -179 261 -52 19 -74 21 -165 16 -152 -9 -433 -54
-695 -112 -38 -8 -146 -20 -239 -25 -162 -10 -315 -29 -401 -51 -61 -15 -196
-59 -230 -74 -108 -48 -151 -68 -197 -89 -29 -13 -118 -49 -198 -79 -80 -30
-177 -70 -215 -90 -39 -19 -112 -46 -162 -60 -161 -44 -423 -157 -548 -236
-118 -75 -238 -179 -295 -256 -89 -122 -94 -230 -13 -307 62 -59 141 -63 288
-14 73 24 101 29 103 20 7 -30 -49 -107 -157 -214 -64 -63 -138 -148 -164
-188 -46 -68 -110 -196 -128 -252 -4 -14 -28 -83 -54 -155 -26 -71 -50 -141
-55 -155 -4 -14 -19 -50 -33 -80 -31 -68 -77 -201 -77 -223 0 -29 -20 -29 -65
1 -25 16 -74 42 -109 57 l-64 27 28 54 c43 81 45 134 16 375 -24 202 -34 295
-71 654 -20 193 -30 285 -57 530 -31 279 -31 648 0 815 26 141 59 243 124 380
27 58 65 143 84 190 75 185 95 215 280 417 88 97 129 170 142 255 13 83 76
179 140 212 20 10 57 16 104 16 117 1 206 54 247 150 64 149 13 288 -133 362
-54 28 -72 32 -156 35 -58 1 -112 -3 -140 -11z m106 -9938 c-3 -13 -13 -53
-23 -89 l-17 -67 -55 -6 c-74 -9 -131 -36 -179 -86 -60 -61 -76 -111 -69 -218
6 -107 43 -221 168 -517 48 -115 131 -320 184 -455 54 -135 105 -263 114 -285
142 -325 265 -582 363 -760 80 -143 118 -217 118 -225 0 -4 -13 -13 -29 -19
-93 -39 -267 -222 -337 -354 -43 -81 -91 -221 -100 -288 -4 -27 -10 -49 -15
-49 -16 0 -165 237 -236 375 -85 168 -158 338 -248 580 -37 99 -71 189 -75
200 -21 47 -121 359 -149 460 -68 251 -85 389 -102 817 l-13 307 80 83 c43 46
111 123 149 172 39 49 105 133 147 187 81 103 182 194 258 234 58 31 74 32 66
3z m4951 -1343 c73 -22 96 -54 138 -193 67 -218 140 -419 215 -587 5 -11 45
-108 90 -215 45 -107 117 -267 160 -355 92 -186 137 -315 179 -510 33 -154 64
-345 57 -352 -2 -2 -37 13 -78 35 -70 39 -188 83 -255 97 -18 4 -35 10 -38 15
-3 5 -10 89 -15 187 -19 337 -49 505 -156 864 -19 64 -50 178 -69 254 -46 183
-83 237 -193 280 -49 20 -48 19 -62 170 -6 61 -15 144 -20 185 -9 77 -13 140
-7 140 2 0 26 -7 54 -15z"/>
<path d="M19889 28560 c-100 -17 -299 -111 -368 -174 -25 -24 -68 -58 -96 -76
-129 -87 -165 -133 -165 -213 0 -48 27 -97 70 -129 24 -17 27 -17 90 2 90 28
243 70 315 85 33 7 107 23 165 36 95 21 130 23 380 23 247 1 286 -2 380 -22
170 -36 301 -68 335 -82 31 -12 145 -38 194 -44 40 -4 49 -1 87 30 48 40 80
108 70 149 -10 40 -104 93 -311 175 -46 18 -317 101 -407 125 -142 38 -315 72
-468 94 -186 27 -218 29 -271 21z"/>
<path d="M23531 27724 c-235 -34 -450 -134 -561 -260 -39 -45 -90 -155 -90
-195 0 -89 80 -151 165 -128 38 11 110 91 121 135 9 36 24 30 77 -31 70 -80
170 -127 283 -133 99 -5 154 7 240 54 94 51 167 143 199 251 l15 49 57 -7
c119 -15 207 -30 296 -49 121 -27 152 -26 182 5 60 59 13 131 -129 200 -225
108 -565 151 -855 109z"/>
<path d="M20105 27670 c-207 -32 -399 -90 -455 -137 -40 -33 -42 -88 -5 -123
21 -20 34 -23 97 -22 40 1 126 7 191 13 65 6 119 10 121 8 1 -2 17 -35 36 -74
104 -216 359 -304 574 -199 59 29 168 134 181 173 3 12 12 21 20 21 26 0 134
-90 172 -143 45 -66 78 -87 131 -87 86 0 149 84 124 167 -25 84 -172 228 -302
297 -94 49 -230 92 -353 110 -144 21 -377 20 -532 -4z"/>
<path d="M22205 26755 c-76 -27 -114 -98 -101 -189 16 -105 169 -299 279 -354
43 -21 45 -24 37 -51 -4 -16 -27 -66 -50 -110 -59 -114 -146 -204 -265 -275
-125 -75 -151 -124 -106 -206 45 -85 192 -106 315 -46 113 55 277 237 353 391
62 124 113 289 113 361 -1 53 -30 114 -71 145 -19 14 -64 36 -100 48 -89 29
-139 74 -185 166 -43 86 -57 101 -111 121 -48 17 -58 16 -108 -1z"/>
<path d="M20999 24873 c-40 -24 -63 -71 -62 -123 1 -85 43 -135 164 -195 58
-30 84 -36 186 -46 146 -14 338 -6 498 21 156 26 219 25 401 -5 234 -39 394
-29 506 32 121 66 133 233 21 279 -41 18 -64 15 -145 -15 -75 -28 -203 -28
-358 0 -156 27 -327 27 -494 0 -143 -24 -331 -29 -440 -11 -73 11 -85 16 -143
56 -42 28 -96 31 -134 7z"/>
<path d="M19432 19289 c-89 -51 -142 -153 -142 -275 0 -97 23 -149 104 -231
64 -64 77 -72 128 -83 216 -43 380 129 333 351 -33 158 -157 269 -302 269 -57
0 -76 -5 -121 -31z m149 -209 c39 -21 62 -103 40 -139 -8 -12 -15 -12 -45 3
-53 25 -68 63 -46 120 10 28 21 31 51 16z"/>
<path d="M20343 16979 c-48 -23 -83 -61 -116 -123 -19 -35 -22 -57 -22 -146 0
-95 3 -111 28 -162 31 -63 107 -138 141 -138 12 -1 32 -7 46 -15 15 -9 53 -14
95 -14 89 0 148 27 190 90 29 42 30 49 30 149 0 105 -11 155 -51 231 -25 49
-86 111 -129 130 -57 26 -158 25 -212 -2z m141 -252 c10 -21 20 -56 23 -77 5
-35 3 -40 -14 -40 -42 0 -74 74 -59 135 9 35 27 28 50 -18z"/>
<path d="M23702 15952 c-41 -38 -46 -72 -40 -276 5 -189 15 -228 67 -259 49
-29 88 -22 134 23 l40 41 -6 97 c-4 53 -7 150 -7 214 0 117 0 117 -31 153 -27
31 -37 35 -79 35 -39 0 -54 -5 -78 -28z"/>
<path d="M21255 15841 c-57 -16 -84 -30 -124 -66 -76 -69 -105 -174 -77 -285
31 -126 96 -482 140 -765 69 -454 115 -864 156 -1405 5 -74 15 -189 20 -255
12 -139 33 -442 55 -770 8 -126 19 -300 25 -385 6 -85 15 -234 20 -330 22
-367 40 -678 45 -755 3 -44 12 -195 20 -335 8 -140 20 -313 25 -385 5 -71 15
-209 21 -305 6 -96 15 -195 20 -220 17 -75 57 -136 116 -177 49 -34 63 -38
130 -41 92 -5 145 13 203 69 79 77 93 147 75 384 -8 93 -21 285 -29 425 -9
140 -21 323 -26 405 -6 83 -15 229 -20 325 -20 359 -30 529 -40 680 -5 85 -17
265 -25 400 -20 320 -43 653 -55 815 -6 72 -15 191 -20 265 -67 939 -155 1637
-295 2336 -49 244 -78 299 -186 354 -43 23 -130 33 -174 21z"/>
<path d="M15039 14394 c-63 -19 -131 -81 -159 -146 -26 -61 -25 -104 9 -328
75 -503 118 -1128 161 -2340 5 -151 14 -365 19 -475 6 -110 13 -258 16 -330
12 -281 54 -876 63 -890 4 -5 9 -98 13 -205 5 -152 10 -204 23 -234 39 -89
120 -158 208 -178 97 -21 211 30 264 120 41 67 50 127 30 195 -15 55 -29 198
-46 482 -6 94 -17 280 -25 415 -16 260 -38 743 -55 1180 -46 1233 -86 1794
-166 2345 -13 94 -29 187 -33 208 -21 87 -103 167 -192 186 -62 14 -73 13
-130 -5z"/>
<path d="M20965 13283 c-65 -34 -114 -84 -144 -146 -98 -203 -36 -397 150
-462 92 -33 207 -7 275 61 66 66 79 102 79 224 0 94 -3 111 -27 160 -37 75
-93 139 -142 161 -51 23 -149 24 -191 2z m114 -247 c29 -47 29 -121 0 -137
-16 -8 -28 -8 -45 0 -20 9 -24 18 -24 58 0 41 28 113 44 113 2 0 14 -15 25
-34z"/>
<path d="M25865 13112 c-53 -25 -121 -100 -134 -149 -67 -245 -88 -393 -166
-1148 -8 -82 -17 -170 -21 -195 -21 -170 -70 -644 -83 -800 -29 -340 -49
-1124 -31 -1219 27 -149 116 -231 250 -231 96 0 178 49 220 130 33 64 39 149
44 565 6 526 22 736 126 1650 5 50 17 155 25 235 8 80 19 188 25 240 6 52 15
142 21 200 6 58 15 109 19 114 5 5 43 -1 89 -13 143 -39 241 -53 586 -86 83
-8 218 -22 300 -31 83 -9 287 -19 455 -23 l304 -6 9 -35 c14 -60 20 -1151 8
-1686 -11 -485 -29 -834 -51 -953 -31 -172 30 -312 155 -355 67 -22 118 -20
178 9 97 45 148 123 171 262 44 259 66 879 66 1874 0 952 -11 1053 -130 1229
-38 56 -69 84 -129 114 -83 43 -115 47 -491 57 -201 5 -403 13 -450 18 -47 6
-155 17 -240 25 -85 8 -204 20 -265 26 -254 25 -394 60 -565 143 -93 45 -114
51 -180 54 -58 3 -84 -1 -115 -15z"/>
<path d="M24088 12364 c-34 -18 -54 -55 -62 -114 -9 -63 9 -459 23 -493 39
-101 154 -101 196 0 22 52 22 521 0 563 -28 54 -101 75 -157 44z"/>
<path d="M21135 9941 c-155 -40 -264 -207 -226 -348 11 -40 67 -103 94 -103 7
-1 21 -15 32 -32 34 -54 70 -73 133 -73 95 1 201 65 243 147 42 83 30 211 -29
308 -48 78 -159 123 -247 101z m65 -257 c14 -36 13 -42 -16 -60 -27 -18 -38
-13 -48 23 -5 15 0 28 15 42 29 27 37 26 49 -5z"/>
</g>
</svg>
